<?xml version="1.0" encoding="utf-8" standalone="no"?>
<!DOCTYPE svg PUBLIC "-//W3C//DTD SVG 1.1//EN"
  "http://www.w3.org/Graphics/SVG/1.1/DTD/svg11.dtd">
<svg xmlns:xlink="http://www.w3.org/1999/xlink" width="460.8pt" height="345.6pt" viewBox="0 0 460.8 345.6" xmlns="http://www.w3.org/2000/svg" version="1.1">
 <metadata>
  <rdf:RDF xmlns:dc="http://purl.org/dc/elements/1.1/" xmlns:cc="http://creativecommons.org/ns#" xmlns:rdf="http://www.w3.org/1999/02/22-rdf-syntax-ns#">
   <cc:Work>
    <dc:type rdf:resource="http://purl.org/dc/dcmitype/StillImage"/>
    <dc:date>2023-12-10T12:38:47.973851</dc:date>
    <dc:format>image/svg+xml</dc:format>
    <dc:creator>
     <cc:Agent>
      <dc:title>Matplotlib v3.8.1, https://matplotlib.org/</dc:title>
     </cc:Agent>
    </dc:creator>
   </cc:Work>
  </rdf:RDF>
 </metadata>
 <defs>
  <style type="text/css">*{stroke-linejoin: round; stroke-linecap: butt}</style>
 </defs>
 <g id="figure_1">
  <g id="patch_1">
   <path d="M 0 345.6 
L 460.8 345.6 
L 460.8 0 
L 0 0 
z
" style="fill: #ffffff"/>
  </g>
  <g id="axes_1">
   <g id="patch_2">
    <path d="M 44.57 303.64 
L 450 303.64 
L 450 11.822543 
L 44.57 11.822543 
z
" style="fill: #ffffff"/>
   </g>
   <g id="matplotlib.axis_1">
    <g id="xtick_1">
     <g id="line2d_1">
      <defs>
       <path id="m1093a4ce4a" d="M 0 0 
L 0 3.5 
" style="stroke: #000000; stroke-width: 0.8"/>
      </defs>
      <g>
       <use xlink:href="#m1093a4ce4a" x="62.998636" y="303.64" style="stroke: #000000; stroke-width: 0.8"/>
      </g>
     </g>
     <g id="text_1">
      <!-- 0.000 -->
      <g transform="translate(48.684574 318.238437) scale(0.1 -0.1)">
       <defs>
        <path id="DejaVuSans-30" d="M 2034 4250 
Q 1547 4250 1301 3770 
Q 1056 3291 1056 2328 
Q 1056 1369 1301 889 
Q 1547 409 2034 409 
Q 2525 409 2770 889 
Q 3016 1369 3016 2328 
Q 3016 3291 2770 3770 
Q 2525 4250 2034 4250 
z
M 2034 4750 
Q 2819 4750 3233 4129 
Q 3647 3509 3647 2328 
Q 3647 1150 3233 529 
Q 2819 -91 2034 -91 
Q 1250 -91 836 529 
Q 422 1150 422 2328 
Q 422 3509 836 4129 
Q 1250 4750 2034 4750 
z
" transform="scale(0.015625)"/>
        <path id="DejaVuSans-2e" d="M 684 794 
L 1344 794 
L 1344 0 
L 684 0 
L 684 794 
z
" transform="scale(0.015625)"/>
       </defs>
       <use xlink:href="#DejaVuSans-30"/>
       <use xlink:href="#DejaVuSans-2e" x="63.623047"/>
       <use xlink:href="#DejaVuSans-30" x="95.410156"/>
       <use xlink:href="#DejaVuSans-30" x="159.033203"/>
       <use xlink:href="#DejaVuSans-30" x="222.65625"/>
      </g>
     </g>
    </g>
    <g id="xtick_2">
     <g id="line2d_2">
      <g>
       <use xlink:href="#m1093a4ce4a" x="109.070227" y="303.64" style="stroke: #000000; stroke-width: 0.8"/>
      </g>
     </g>
     <g id="text_2">
      <!-- 0.025 -->
      <g transform="translate(94.756165 318.238437) scale(0.1 -0.1)">
       <defs>
        <path id="DejaVuSans-32" d="M 1228 531 
L 3431 531 
L 3431 0 
L 469 0 
L 469 531 
Q 828 903 1448 1529 
Q 2069 2156 2228 2338 
Q 2531 2678 2651 2914 
Q 2772 3150 2772 3378 
Q 2772 3750 2511 3984 
Q 2250 4219 1831 4219 
Q 1534 4219 1204 4116 
Q 875 4013 500 3803 
L 500 4441 
Q 881 4594 1212 4672 
Q 1544 4750 1819 4750 
Q 2544 4750 2975 4387 
Q 3406 4025 3406 3419 
Q 3406 3131 3298 2873 
Q 3191 2616 2906 2266 
Q 2828 2175 2409 1742 
Q 1991 1309 1228 531 
z
" transform="scale(0.015625)"/>
        <path id="DejaVuSans-35" d="M 691 4666 
L 3169 4666 
L 3169 4134 
L 1269 4134 
L 1269 2991 
Q 1406 3038 1543 3061 
Q 1681 3084 1819 3084 
Q 2600 3084 3056 2656 
Q 3513 2228 3513 1497 
Q 3513 744 3044 326 
Q 2575 -91 1722 -91 
Q 1428 -91 1123 -41 
Q 819 9 494 109 
L 494 744 
Q 775 591 1075 516 
Q 1375 441 1709 441 
Q 2250 441 2565 725 
Q 2881 1009 2881 1497 
Q 2881 1984 2565 2268 
Q 2250 2553 1709 2553 
Q 1456 2553 1204 2497 
Q 953 2441 691 2322 
L 691 4666 
z
" transform="scale(0.015625)"/>
       </defs>
       <use xlink:href="#DejaVuSans-30"/>
       <use xlink:href="#DejaVuSans-2e" x="63.623047"/>
       <use xlink:href="#DejaVuSans-30" x="95.410156"/>
       <use xlink:href="#DejaVuSans-32" x="159.033203"/>
       <use xlink:href="#DejaVuSans-35" x="222.65625"/>
      </g>
     </g>
    </g>
    <g id="xtick_3">
     <g id="line2d_3">
      <g>
       <use xlink:href="#m1093a4ce4a" x="155.141818" y="303.64" style="stroke: #000000; stroke-width: 0.8"/>
      </g>
     </g>
     <g id="text_3">
      <!-- 0.050 -->
      <g transform="translate(140.827756 318.238437) scale(0.1 -0.1)">
       <use xlink:href="#DejaVuSans-30"/>
       <use xlink:href="#DejaVuSans-2e" x="63.623047"/>
       <use xlink:href="#DejaVuSans-30" x="95.410156"/>
       <use xlink:href="#DejaVuSans-35" x="159.033203"/>
       <use xlink:href="#DejaVuSans-30" x="222.65625"/>
      </g>
     </g>
    </g>
    <g id="xtick_4">
     <g id="line2d_4">
      <g>
       <use xlink:href="#m1093a4ce4a" x="201.213409" y="303.64" style="stroke: #000000; stroke-width: 0.8"/>
      </g>
     </g>
     <g id="text_4">
      <!-- 0.075 -->
      <g transform="translate(186.899347 318.238437) scale(0.1 -0.1)">
       <defs>
        <path id="DejaVuSans-37" d="M 525 4666 
L 3525 4666 
L 3525 4397 
L 1831 0 
L 1172 0 
L 2766 4134 
L 525 4134 
L 525 4666 
z
" transform="scale(0.015625)"/>
       </defs>
       <use xlink:href="#DejaVuSans-30"/>
       <use xlink:href="#DejaVuSans-2e" x="63.623047"/>
       <use xlink:href="#DejaVuSans-30" x="95.410156"/>
       <use xlink:href="#DejaVuSans-37" x="159.033203"/>
       <use xlink:href="#DejaVuSans-35" x="222.65625"/>
      </g>
     </g>
    </g>
    <g id="xtick_5">
     <g id="line2d_5">
      <g>
       <use xlink:href="#m1093a4ce4a" x="247.285" y="303.64" style="stroke: #000000; stroke-width: 0.8"/>
      </g>
     </g>
     <g id="text_5">
      <!-- 0.100 -->
      <g transform="translate(232.970937 318.238437) scale(0.1 -0.1)">
       <defs>
        <path id="DejaVuSans-31" d="M 794 531 
L 1825 531 
L 1825 4091 
L 703 3866 
L 703 4441 
L 1819 4666 
L 2450 4666 
L 2450 531 
L 3481 531 
L 3481 0 
L 794 0 
L 794 531 
z
" transform="scale(0.015625)"/>
       </defs>
       <use xlink:href="#DejaVuSans-30"/>
       <use xlink:href="#DejaVuSans-2e" x="63.623047"/>
       <use xlink:href="#DejaVuSans-31" x="95.410156"/>
       <use xlink:href="#DejaVuSans-30" x="159.033203"/>
       <use xlink:href="#DejaVuSans-30" x="222.65625"/>
      </g>
     </g>
    </g>
    <g id="xtick_6">
     <g id="line2d_6">
      <g>
       <use xlink:href="#m1093a4ce4a" x="293.356591" y="303.64" style="stroke: #000000; stroke-width: 0.8"/>
      </g>
     </g>
     <g id="text_6">
      <!-- 0.125 -->
      <g transform="translate(279.042528 318.238437) scale(0.1 -0.1)">
       <use xlink:href="#DejaVuSans-30"/>
       <use xlink:href="#DejaVuSans-2e" x="63.623047"/>
       <use xlink:href="#DejaVuSans-31" x="95.410156"/>
       <use xlink:href="#DejaVuSans-32" x="159.033203"/>
       <use xlink:href="#DejaVuSans-35" x="222.65625"/>
      </g>
     </g>
    </g>
    <g id="xtick_7">
     <g id="line2d_7">
      <g>
       <use xlink:href="#m1093a4ce4a" x="339.428182" y="303.64" style="stroke: #000000; stroke-width: 0.8"/>
      </g>
     </g>
     <g id="text_7">
      <!-- 0.150 -->
      <g transform="translate(325.114119 318.238437) scale(0.1 -0.1)">
       <use xlink:href="#DejaVuSans-30"/>
       <use xlink:href="#DejaVuSans-2e" x="63.623047"/>
       <use xlink:href="#DejaVuSans-31" x="95.410156"/>
       <use xlink:href="#DejaVuSans-35" x="159.033203"/>
       <use xlink:href="#DejaVuSans-30" x="222.65625"/>
      </g>
     </g>
    </g>
    <g id="xtick_8">
     <g id="line2d_8">
      <g>
       <use xlink:href="#m1093a4ce4a" x="385.499773" y="303.64" style="stroke: #000000; stroke-width: 0.8"/>
      </g>
     </g>
     <g id="text_8">
      <!-- 0.175 -->
      <g transform="translate(371.18571 318.238437) scale(0.1 -0.1)">
       <use xlink:href="#DejaVuSans-30"/>
       <use xlink:href="#DejaVuSans-2e" x="63.623047"/>
       <use xlink:href="#DejaVuSans-31" x="95.410156"/>
       <use xlink:href="#DejaVuSans-37" x="159.033203"/>
       <use xlink:href="#DejaVuSans-35" x="222.65625"/>
      </g>
     </g>
    </g>
    <g id="xtick_9">
     <g id="line2d_9">
      <g>
       <use xlink:href="#m1093a4ce4a" x="431.571364" y="303.64" style="stroke: #000000; stroke-width: 0.8"/>
      </g>
     </g>
     <g id="text_9">
      <!-- 0.200 -->
      <g transform="translate(417.257301 318.238437) scale(0.1 -0.1)">
       <use xlink:href="#DejaVuSans-30"/>
       <use xlink:href="#DejaVuSans-2e" x="63.623047"/>
       <use xlink:href="#DejaVuSans-32" x="95.410156"/>
       <use xlink:href="#DejaVuSans-30" x="159.033203"/>
       <use xlink:href="#DejaVuSans-30" x="222.65625"/>
      </g>
     </g>
    </g>
    <g id="text_10">
     <!-- strain -->
     <g transform="translate(233.042813 331.916562) scale(0.1 -0.1)">
      <defs>
       <path id="DejaVuSans-73" d="M 2834 3397 
L 2834 2853 
Q 2591 2978 2328 3040 
Q 2066 3103 1784 3103 
Q 1356 3103 1142 2972 
Q 928 2841 928 2578 
Q 928 2378 1081 2264 
Q 1234 2150 1697 2047 
L 1894 2003 
Q 2506 1872 2764 1633 
Q 3022 1394 3022 966 
Q 3022 478 2636 193 
Q 2250 -91 1575 -91 
Q 1294 -91 989 -36 
Q 684 19 347 128 
L 347 722 
Q 666 556 975 473 
Q 1284 391 1588 391 
Q 1994 391 2212 530 
Q 2431 669 2431 922 
Q 2431 1156 2273 1281 
Q 2116 1406 1581 1522 
L 1381 1569 
Q 847 1681 609 1914 
Q 372 2147 372 2553 
Q 372 3047 722 3315 
Q 1072 3584 1716 3584 
Q 2034 3584 2315 3537 
Q 2597 3491 2834 3397 
z
" transform="scale(0.015625)"/>
       <path id="DejaVuSans-74" d="M 1172 4494 
L 1172 3500 
L 2356 3500 
L 2356 3053 
L 1172 3053 
L 1172 1153 
Q 1172 725 1289 603 
Q 1406 481 1766 481 
L 2356 481 
L 2356 0 
L 1766 0 
Q 1100 0 847 248 
Q 594 497 594 1153 
L 594 3053 
L 172 3053 
L 172 3500 
L 594 3500 
L 594 4494 
L 1172 4494 
z
" transform="scale(0.015625)"/>
       <path id="DejaVuSans-72" d="M 2631 2963 
Q 2534 3019 2420 3045 
Q 2306 3072 2169 3072 
Q 1681 3072 1420 2755 
Q 1159 2438 1159 1844 
L 1159 0 
L 581 0 
L 581 3500 
L 1159 3500 
L 1159 2956 
Q 1341 3275 1631 3429 
Q 1922 3584 2338 3584 
Q 2397 3584 2469 3576 
Q 2541 3569 2628 3553 
L 2631 2963 
z
" transform="scale(0.015625)"/>
       <path id="DejaVuSans-61" d="M 2194 1759 
Q 1497 1759 1228 1600 
Q 959 1441 959 1056 
Q 959 750 1161 570 
Q 1363 391 1709 391 
Q 2188 391 2477 730 
Q 2766 1069 2766 1631 
L 2766 1759 
L 2194 1759 
z
M 3341 1997 
L 3341 0 
L 2766 0 
L 2766 531 
Q 2569 213 2275 61 
Q 1981 -91 1556 -91 
Q 1019 -91 701 211 
Q 384 513 384 1019 
Q 384 1609 779 1909 
Q 1175 2209 1959 2209 
L 2766 2209 
L 2766 2266 
Q 2766 2663 2505 2880 
Q 2244 3097 1772 3097 
Q 1472 3097 1187 3025 
Q 903 2953 641 2809 
L 641 3341 
Q 956 3463 1253 3523 
Q 1550 3584 1831 3584 
Q 2591 3584 2966 3190 
Q 3341 2797 3341 1997 
z
" transform="scale(0.015625)"/>
       <path id="DejaVuSans-69" d="M 603 3500 
L 1178 3500 
L 1178 0 
L 603 0 
L 603 3500 
z
M 603 4863 
L 1178 4863 
L 1178 4134 
L 603 4134 
L 603 4863 
z
" transform="scale(0.015625)"/>
       <path id="DejaVuSans-6e" d="M 3513 2113 
L 3513 0 
L 2938 0 
L 2938 2094 
Q 2938 2591 2744 2837 
Q 2550 3084 2163 3084 
Q 1697 3084 1428 2787 
Q 1159 2491 1159 1978 
L 1159 0 
L 581 0 
L 581 3500 
L 1159 3500 
L 1159 2956 
Q 1366 3272 1645 3428 
Q 1925 3584 2291 3584 
Q 2894 3584 3203 3211 
Q 3513 2838 3513 2113 
z
" transform="scale(0.015625)"/>
      </defs>
      <use xlink:href="#DejaVuSans-73"/>
      <use xlink:href="#DejaVuSans-74" x="52.099609"/>
      <use xlink:href="#DejaVuSans-72" x="91.308594"/>
      <use xlink:href="#DejaVuSans-61" x="132.421875"/>
      <use xlink:href="#DejaVuSans-69" x="193.701172"/>
      <use xlink:href="#DejaVuSans-6e" x="221.484375"/>
     </g>
    </g>
   </g>
   <g id="matplotlib.axis_2">
    <g id="ytick_1">
     <g id="line2d_10">
      <defs>
       <path id="md659f49c03" d="M 0 0 
L -3.5 0 
" style="stroke: #000000; stroke-width: 0.8"/>
      </defs>
      <g>
       <use xlink:href="#md659f49c03" x="44.57" y="290.37557" style="stroke: #000000; stroke-width: 0.8"/>
      </g>
     </g>
     <g id="text_11">
      <!-- 0 -->
      <g transform="translate(31.2075 294.174789) scale(0.1 -0.1)">
       <use xlink:href="#DejaVuSans-30"/>
      </g>
     </g>
    </g>
    <g id="ytick_2">
     <g id="line2d_11">
      <g>
       <use xlink:href="#md659f49c03" x="44.57" y="235.309206" style="stroke: #000000; stroke-width: 0.8"/>
      </g>
     </g>
     <g id="text_12">
      <!-- 10 -->
      <g transform="translate(24.845 239.108424) scale(0.1 -0.1)">
       <use xlink:href="#DejaVuSans-31"/>
       <use xlink:href="#DejaVuSans-30" x="63.623047"/>
      </g>
     </g>
    </g>
    <g id="ytick_3">
     <g id="line2d_12">
      <g>
       <use xlink:href="#md659f49c03" x="44.57" y="180.242841" style="stroke: #000000; stroke-width: 0.8"/>
      </g>
     </g>
     <g id="text_13">
      <!-- 20 -->
      <g transform="translate(24.845 184.04206) scale(0.1 -0.1)">
       <use xlink:href="#DejaVuSans-32"/>
       <use xlink:href="#DejaVuSans-30" x="63.623047"/>
      </g>
     </g>
    </g>
    <g id="ytick_4">
     <g id="line2d_13">
      <g>
       <use xlink:href="#md659f49c03" x="44.57" y="125.176477" style="stroke: #000000; stroke-width: 0.8"/>
      </g>
     </g>
     <g id="text_14">
      <!-- 30 -->
      <g transform="translate(24.845 128.975695) scale(0.1 -0.1)">
       <defs>
        <path id="DejaVuSans-33" d="M 2597 2516 
Q 3050 2419 3304 2112 
Q 3559 1806 3559 1356 
Q 3559 666 3084 287 
Q 2609 -91 1734 -91 
Q 1441 -91 1130 -33 
Q 819 25 488 141 
L 488 750 
Q 750 597 1062 519 
Q 1375 441 1716 441 
Q 2309 441 2620 675 
Q 2931 909 2931 1356 
Q 2931 1769 2642 2001 
Q 2353 2234 1838 2234 
L 1294 2234 
L 1294 2753 
L 1863 2753 
Q 2328 2753 2575 2939 
Q 2822 3125 2822 3475 
Q 2822 3834 2567 4026 
Q 2313 4219 1838 4219 
Q 1578 4219 1281 4162 
Q 984 4106 628 3988 
L 628 4550 
Q 988 4650 1302 4700 
Q 1616 4750 1894 4750 
Q 2613 4750 3031 4423 
Q 3450 4097 3450 3541 
Q 3450 3153 3228 2886 
Q 3006 2619 2597 2516 
z
" transform="scale(0.015625)"/>
       </defs>
       <use xlink:href="#DejaVuSans-33"/>
       <use xlink:href="#DejaVuSans-30" x="63.623047"/>
      </g>
     </g>
    </g>
    <g id="ytick_5">
     <g id="line2d_14">
      <g>
       <use xlink:href="#md659f49c03" x="44.57" y="70.110112" style="stroke: #000000; stroke-width: 0.8"/>
      </g>
     </g>
     <g id="text_15">
      <!-- 40 -->
      <g transform="translate(24.845 73.909331) scale(0.1 -0.1)">
       <defs>
        <path id="DejaVuSans-34" d="M 2419 4116 
L 825 1625 
L 2419 1625 
L 2419 4116 
z
M 2253 4666 
L 3047 4666 
L 3047 1625 
L 3713 1625 
L 3713 1100 
L 3047 1100 
L 3047 0 
L 2419 0 
L 2419 1100 
L 313 1100 
L 313 1709 
L 2253 4666 
z
" transform="scale(0.015625)"/>
       </defs>
       <use xlink:href="#DejaVuSans-34"/>
       <use xlink:href="#DejaVuSans-30" x="63.623047"/>
      </g>
     </g>
    </g>
    <g id="ytick_6">
     <g id="line2d_15">
      <g>
       <use xlink:href="#md659f49c03" x="44.57" y="15.043748" style="stroke: #000000; stroke-width: 0.8"/>
      </g>
     </g>
     <g id="text_16">
      <!-- 50 -->
      <g transform="translate(24.845 18.842966) scale(0.1 -0.1)">
       <use xlink:href="#DejaVuSans-35"/>
       <use xlink:href="#DejaVuSans-30" x="63.623047"/>
      </g>
     </g>
    </g>
    <g id="text_17">
     <!-- stress -->
     <g transform="translate(18.765313 172.525022) rotate(-90) scale(0.1 -0.1)">
      <defs>
       <path id="DejaVuSans-65" d="M 3597 1894 
L 3597 1613 
L 953 1613 
Q 991 1019 1311 708 
Q 1631 397 2203 397 
Q 2534 397 2845 478 
Q 3156 559 3463 722 
L 3463 178 
Q 3153 47 2828 -22 
Q 2503 -91 2169 -91 
Q 1331 -91 842 396 
Q 353 884 353 1716 
Q 353 2575 817 3079 
Q 1281 3584 2069 3584 
Q 2775 3584 3186 3129 
Q 3597 2675 3597 1894 
z
M 3022 2063 
Q 3016 2534 2758 2815 
Q 2500 3097 2075 3097 
Q 1594 3097 1305 2825 
Q 1016 2553 972 2059 
L 3022 2063 
z
" transform="scale(0.015625)"/>
      </defs>
      <use xlink:href="#DejaVuSans-73"/>
      <use xlink:href="#DejaVuSans-74" x="52.099609"/>
      <use xlink:href="#DejaVuSans-72" x="91.308594"/>
      <use xlink:href="#DejaVuSans-65" x="130.171875"/>
      <use xlink:href="#DejaVuSans-73" x="191.695312"/>
      <use xlink:href="#DejaVuSans-73" x="243.794922"/>
     </g>
    </g>
   </g>
   <g id="line2d_16">
    <path d="M 62.998636 290.37557 
L 66.721593 247.588962 
L 70.44455 204.802354 
L 74.167507 162.015746 
L 77.890464 119.229138 
L 81.613421 91.885037 
L 85.336377 82.468187 
L 89.059334 77.898074 
L 92.782291 74.645701 
L 96.505248 71.948208 
L 100.228205 69.631025 
L 103.951162 67.63915 
L 107.674118 65.942152 
L 111.397075 64.51516 
L 115.120032 63.335135 
L 118.842989 62.380192 
L 122.565946 61.62953 
L 126.288903 61.063454 
L 130.01186 60.663414 
L 133.734816 60.412017 
L 137.457773 60.293035 
L 141.18073 60.291394 
L 144.903687 60.393149 
L 148.626644 60.58545 
L 152.349601 60.856504 
L 156.072557 61.195528 
L 159.795514 61.592697 
L 163.518471 62.039088 
L 167.241428 62.52663 
L 170.964385 63.048044 
L 174.687342 63.596787 
L 178.410298 64.167004 
L 182.133255 64.753466 
L 185.856212 65.351526 
L 189.579169 65.957071 
L 193.302126 66.566472 
L 197.025083 67.176544 
L 200.748039 67.784503 
L 204.470996 68.387935 
L 208.193953 68.984752 
L 211.91691 69.573166 
L 215.639867 70.151656 
L 219.362824 70.718946 
L 223.085781 71.27397 
L 226.808737 71.815858 
L 230.531694 72.343913 
L 234.254651 72.857589 
L 237.977608 73.356474 
L 241.700565 73.840278 
L 245.423522 74.308815 
L 249.146478 74.761992 
L 252.869435 75.199797 
L 256.592392 75.622286 
L 260.315349 76.029578 
L 264.038306 76.421844 
L 267.761263 76.799299 
L 271.484219 77.162195 
L 275.207176 77.510817 
L 278.930133 77.845477 
L 282.65309 78.166507 
L 286.376047 78.474255 
L 290.099004 78.769086 
L 293.821961 79.051372 
L 297.544917 79.321492 
L 301.267874 79.579831 
L 304.990831 79.826776 
L 308.713788 80.062713 
L 312.436745 80.288027 
L 316.159702 80.503099 
L 319.882658 80.708307 
L 323.605615 80.904024 
L 327.328572 81.090614 
L 331.051529 81.268436 
L 334.774486 81.437841 
L 338.497443 81.59917 
L 342.220399 81.752757 
L 345.943356 81.898927 
L 349.666313 82.037994 
L 353.38927 82.170264 
L 357.112227 82.296033 
L 360.835184 82.415586 
L 364.55814 82.5292 
L 368.281097 82.637142 
L 372.004054 82.739669 
L 375.727011 82.837029 
L 379.449968 82.92946 
L 383.172925 83.017192 
L 386.895882 83.100445 
L 390.618838 83.179431 
L 394.341795 83.254352 
L 398.064752 83.325403 
L 401.787709 83.392771 
L 405.510666 83.456635 
L 409.233623 83.517164 
L 412.956579 83.574523 
L 416.679536 83.628869 
L 420.402493 83.68035 
L 424.12545 83.72911 
L 427.848407 83.775284 
L 431.571364 83.819002 
" clip-path="url(#p3fa131c1b2)" style="fill: none; stroke: #1f77b4; stroke-width: 1.5; stroke-linecap: square"/>
   </g>
   <g id="line2d_17">
    <path d="M 62.998636 290.37557 
L 66.721593 247.588962 
L 70.44455 204.802354 
L 74.167507 162.015746 
L 77.890464 119.229138 
L 81.613421 97.696578 
L 85.336377 91.596367 
L 89.059334 87.513491 
L 92.782291 83.944439 
L 96.505248 80.72944 
L 100.228205 77.83771 
L 103.951162 75.250728 
L 107.674118 72.951224 
L 111.397075 70.92222 
L 115.120032 69.147007 
L 118.842989 67.609217 
L 122.565946 66.29289 
L 126.288903 65.18253 
L 130.01186 64.26316 
L 133.734816 63.520359 
L 137.457773 62.940296 
L 141.18073 62.509757 
L 144.903687 62.216155 
L 148.626644 62.047549 
L 152.349601 61.992638 
L 156.072557 62.040766 
L 159.795514 62.181909 
L 163.518471 62.406671 
L 167.241428 62.70626 
L 170.964385 63.072478 
L 174.687342 63.497695 
L 178.410298 63.974829 
L 182.133255 64.497325 
L 185.856212 65.059127 
L 189.579169 65.654653 
L 193.302126 66.278773 
L 197.025083 66.926781 
L 200.748039 67.594371 
L 204.470996 68.277613 
L 208.193953 68.972927 
L 211.91691 69.677064 
L 215.639867 70.387081 
L 219.362824 71.100318 
L 223.085781 71.814384 
L 226.808737 72.527128 
L 230.531694 73.236632 
L 234.254651 73.941183 
L 237.977608 74.639264 
L 241.700565 75.329536 
L 245.423522 76.010822 
L 249.146478 76.682096 
L 252.869435 77.342471 
L 256.592392 77.991184 
L 260.315349 78.627587 
L 264.038306 79.251138 
L 267.761263 79.861387 
L 271.484219 80.457975 
L 275.207176 81.040617 
L 278.930133 81.609102 
L 282.65309 82.163281 
L 286.376047 82.703064 
L 290.099004 83.228411 
L 293.821961 83.73933 
L 297.544917 84.23587 
L 301.267874 84.718115 
L 304.990831 85.186184 
L 308.713788 85.640223 
L 312.436745 86.080404 
L 316.159702 86.506921 
L 319.882658 86.919986 
L 323.605615 87.31983 
L 327.328572 87.706694 
L 331.051529 88.080836 
L 334.774486 88.442518 
L 338.497443 88.792015 
L 342.220399 89.129606 
L 345.943356 89.455574 
L 349.666313 89.770206 
L 353.38927 90.073794 
L 357.112227 90.366627 
L 360.835184 90.648997 
L 364.55814 90.921194 
L 368.281097 91.183508 
L 372.004054 91.436225 
L 375.727011 91.67963 
L 379.449968 91.914003 
L 383.172925 92.139623 
L 386.895882 92.356762 
L 390.618838 92.565689 
L 394.341795 92.766669 
L 398.064752 92.959959 
L 401.787709 93.145814 
L 405.510666 93.324482 
L 409.233623 93.496206 
L 412.956579 93.661223 
L 416.679536 93.819764 
L 420.402493 93.972055 
L 424.12545 94.118316 
L 427.848407 94.25876 
L 431.571364 94.393596 
" clip-path="url(#p3fa131c1b2)" style="fill: none; stroke: #ff7f0e; stroke-width: 1.5; stroke-linecap: square"/>
   </g>
   <g id="line2d_18">
    <path d="M 62.998636 290.37557 
L 66.721593 247.588962 
L 70.44455 204.802354 
L 74.167507 162.015746 
L 77.890464 119.229138 
L 81.613421 100.584621 
L 85.336377 95.132398 
L 89.059334 90.620692 
L 92.782291 86.465275 
L 96.505248 82.630075 
L 100.228205 79.101889 
L 103.951162 75.868321 
L 107.674118 72.916907 
L 111.397075 70.235136 
L 115.120032 67.8105 
L 118.842989 65.630547 
L 122.565946 63.682928 
L 126.288903 61.955444 
L 130.01186 60.436087 
L 133.734816 59.11308 
L 137.457773 57.974909 
L 141.18073 57.010352 
L 144.903687 56.208507 
L 148.626644 55.558815 
L 152.349601 55.051075 
L 156.072557 54.675458 
L 159.795514 54.422523 
L 163.518471 54.283217 
L 167.241428 54.248887 
L 170.964385 54.311277 
L 174.687342 54.462527 
L 178.410298 54.695173 
L 182.133255 55.002139 
L 185.856212 55.376733 
L 189.579169 55.812635 
L 193.302126 56.30389 
L 197.025083 56.844899 
L 200.748039 57.430403 
L 204.470996 58.055474 
L 208.193953 58.715502 
L 211.91691 59.406182 
L 215.639867 60.1235 
L 219.362824 60.86372 
L 223.085781 61.623374 
L 226.808737 62.399242 
L 230.531694 63.188346 
L 234.254651 63.987934 
L 237.977608 64.795467 
L 241.700565 65.60861 
L 245.423522 66.425216 
L 249.146478 67.243319 
L 252.869435 68.061121 
L 256.592392 68.876981 
L 260.315349 69.689408 
L 264.038306 70.497046 
L 267.761263 71.298672 
L 271.484219 72.093183 
L 275.207176 72.879586 
L 278.930133 73.656997 
L 282.65309 74.424625 
L 286.376047 75.181774 
L 290.099004 75.927828 
L 293.821961 76.662252 
L 297.544917 77.384582 
L 301.267874 78.094421 
L 304.990831 78.791431 
L 308.713788 79.475335 
L 312.436745 80.145905 
L 316.159702 80.802961 
L 319.882658 81.44637 
L 323.605615 82.076035 
L 327.328572 82.6919 
L 331.051529 83.29394 
L 334.774486 83.882162 
L 338.497443 84.4566 
L 342.220399 85.017313 
L 345.943356 85.564386 
L 349.666313 86.09792 
L 353.38927 86.618037 
L 357.112227 87.124877 
L 360.835184 87.618592 
L 364.55814 88.099349 
L 368.281097 88.567325 
L 372.004054 89.02271 
L 375.727011 89.465699 
L 379.449968 89.896499 
L 383.172925 90.315319 
L 386.895882 90.722378 
L 390.618838 91.117896 
L 394.341795 91.502099 
L 398.064752 91.875215 
L 401.787709 92.237474 
L 405.510666 92.589108 
L 409.233623 92.930349 
L 412.956579 93.261431 
L 416.679536 93.582585 
L 420.402493 93.894046 
L 424.12545 94.196042 
L 427.848407 94.488805 
L 431.571364 94.772563 
" clip-path="url(#p3fa131c1b2)" style="fill: none; stroke: #2ca02c; stroke-width: 1.5; stroke-linecap: square"/>
   </g>
   <g id="line2d_19">
    <path d="M 62.998636 290.37557 
L 66.721593 247.588962 
L 70.44455 204.802354 
L 74.167507 162.015746 
L 77.890464 119.229138 
L 81.613421 101.689149 
L 85.336377 96.061926 
L 89.059334 90.981681 
L 92.782291 86.216526 
L 96.505248 81.753842 
L 100.228205 77.584722 
L 103.951162 73.700124 
L 107.674118 70.090833 
L 111.397075 66.747498 
L 115.120032 63.66066 
L 118.842989 60.820792 
L 122.565946 58.218325 
L 126.288903 55.843685 
L 130.01186 53.687322 
L 133.734816 51.739737 
L 137.457773 49.991515 
L 141.18073 48.433343 
L 144.903687 47.056042 
L 148.626644 45.850585 
L 152.349601 44.808117 
L 156.072557 43.919973 
L 159.795514 43.177694 
L 163.518471 42.573044 
L 167.241428 42.098017 
L 170.964385 41.744848 
L 174.687342 41.506026 
L 178.410298 41.374294 
L 182.133255 41.342656 
L 185.856212 41.40438 
L 189.579169 41.553003 
L 193.302126 41.782323 
L 197.025083 42.086408 
L 200.748039 42.459585 
L 204.470996 42.896444 
L 208.193953 43.39183 
L 211.91691 43.940839 
L 215.639867 44.538813 
L 219.362824 45.181334 
L 223.085781 45.864219 
L 226.808737 46.583509 
L 230.531694 47.335467 
L 234.254651 48.116567 
L 237.977608 48.92349 
L 241.700565 49.753111 
L 245.423522 50.602497 
L 249.146478 51.468894 
L 252.869435 52.349726 
L 256.592392 53.242579 
L 260.315349 54.145201 
L 264.038306 55.055491 
L 267.761263 55.971491 
L 271.484219 56.891381 
L 275.207176 57.813473 
L 278.930133 58.7362 
L 282.65309 59.658113 
L 286.376047 60.577875 
L 290.099004 61.494253 
L 293.821961 62.406114 
L 297.544917 63.312418 
L 301.267874 64.212213 
L 304.990831 65.10463 
L 308.713788 65.988879 
L 312.436745 66.864243 
L 316.159702 67.730075 
L 319.882658 68.58579 
L 323.605615 69.430868 
L 327.328572 70.264843 
L 331.051529 71.087303 
L 334.774486 71.897885 
L 338.497443 72.696274 
L 342.220399 73.482198 
L 345.943356 74.255424 
L 349.666313 75.01576 
L 353.38927 75.763044 
L 357.112227 76.497152 
L 360.835184 77.217986 
L 364.55814 77.925479 
L 368.281097 78.619587 
L 372.004054 79.300292 
L 375.727011 79.967597 
L 379.449968 80.621527 
L 383.172925 81.262124 
L 386.895882 81.889447 
L 390.618838 82.503572 
L 394.341795 83.104589 
L 398.064752 83.692601 
L 401.787709 84.267721 
L 405.510666 84.830077 
L 409.233623 85.379803 
L 412.956579 85.917042 
L 416.679536 86.441948 
L 420.402493 86.954679 
L 424.12545 87.4554 
L 427.848407 87.944282 
L 431.571364 88.4215 
" clip-path="url(#p3fa131c1b2)" style="fill: none; stroke: #d62728; stroke-width: 1.5; stroke-linecap: square"/>
   </g>
   <g id="line2d_20">
    <path d="M 62.998636 290.37557 
L 66.721593 247.588962 
L 70.44455 204.802354 
L 74.167507 162.015746 
L 77.890464 119.229138 
L 81.613421 101.945129 
L 85.336377 95.896306 
L 89.059334 90.237256 
L 92.782291 84.872405 
L 96.505248 79.794801 
L 100.228205 74.997945 
L 103.951162 70.475136 
L 107.674118 66.21949 
L 111.397075 62.223958 
L 115.120032 58.481345 
L 118.842989 54.984336 
L 122.565946 51.725514 
L 126.288903 48.697382 
L 130.01186 45.892382 
L 133.734816 43.302922 
L 137.457773 40.921389 
L 141.18073 38.740172 
L 144.903687 36.751683 
L 148.626644 34.948373 
L 152.349601 33.322746 
L 156.072557 31.867384 
L 159.795514 30.574953 
L 163.518471 29.438225 
L 167.241428 28.450083 
L 170.964385 27.603543 
L 174.687342 26.891754 
L 178.410298 26.308019 
L 182.133255 25.845792 
L 185.856212 25.498694 
L 189.579169 25.260517 
L 193.302126 25.125228 
L 197.025083 25.086973 
L 200.748039 25.140084 
L 204.470996 25.279077 
L 208.193953 25.498656 
L 211.91691 25.793714 
L 215.639867 26.159332 
L 219.362824 26.590778 
L 223.085781 27.083508 
L 226.808737 27.633161 
L 230.531694 28.235561 
L 234.254651 28.88671 
L 237.977608 29.582786 
L 241.700565 30.320141 
L 245.423522 31.095296 
L 249.146478 31.904938 
L 252.869435 32.745912 
L 256.592392 33.615224 
L 260.315349 34.510026 
L 264.038306 35.427623 
L 267.761263 36.365458 
L 271.484219 37.321113 
L 275.207176 38.292302 
L 278.930133 39.276867 
L 282.65309 40.272775 
L 286.376047 41.278107 
L 290.099004 42.29106 
L 293.821961 43.30994 
L 297.544917 44.333155 
L 301.267874 45.359216 
L 304.990831 46.386724 
L 308.713788 47.414377 
L 312.436745 48.440955 
L 316.159702 49.465323 
L 319.882658 50.486424 
L 323.605615 51.503276 
L 327.328572 52.514969 
L 331.051529 53.520659 
L 334.774486 54.519569 
L 338.497443 55.51098 
L 342.220399 56.494232 
L 345.943356 57.468721 
L 349.666313 58.433893 
L 353.38927 59.389243 
L 357.112227 60.334314 
L 360.835184 61.268691 
L 364.55814 62.192001 
L 368.281097 63.103909 
L 372.004054 64.004119 
L 375.727011 64.892367 
L 379.449968 65.768423 
L 383.172925 66.632085 
L 386.895882 67.483184 
L 390.618838 68.321574 
L 394.341795 69.147136 
L 398.064752 69.959774 
L 401.787709 70.759414 
L 405.510666 71.546004 
L 409.233623 72.319509 
L 412.956579 73.079914 
L 416.679536 73.827219 
L 420.402493 74.561441 
L 424.12545 75.282612 
L 427.848407 75.990774 
L 431.571364 76.685986 
" clip-path="url(#p3fa131c1b2)" style="fill: none; stroke: #9467bd; stroke-width: 1.5; stroke-linecap: square"/>
   </g>
   <g id="patch_3">
    <path d="M 44.57 303.64 
L 44.57 11.822543 
" style="fill: none; stroke: #000000; stroke-width: 0.8; stroke-linejoin: miter; stroke-linecap: square"/>
   </g>
   <g id="patch_4">
    <path d="M 450 303.64 
L 450 11.822543 
" style="fill: none; stroke: #000000; stroke-width: 0.8; stroke-linejoin: miter; stroke-linecap: square"/>
   </g>
   <g id="patch_5">
    <path d="M 44.57 303.64 
L 450 303.64 
" style="fill: none; stroke: #000000; stroke-width: 0.8; stroke-linejoin: miter; stroke-linecap: square"/>
   </g>
   <g id="patch_6">
    <path d="M 44.57 11.822543 
L 450 11.822543 
" style="fill: none; stroke: #000000; stroke-width: 0.8; stroke-linejoin: miter; stroke-linecap: square"/>
   </g>
  </g>
 </g>
 <defs>
  <clipPath id="p3fa131c1b2">
   <rect x="44.57" y="11.822543" width="405.43" height="291.817457"/>
  </clipPath>
 </defs>
</svg>
